# xmcd
#
# Track frame offsets: 
#        150
#        13214
#        27208
#        40112
#        53493
#        66990
#        81059
#        93400
#        106607
#        118601
#        130545
#        142921
#        154570
#        168049
#        180816
#        193355
#        208346
#        221585
#        233932
#        246961
#        260120
#        272299
#        285808
#        296949
#
# Disc length: 4119 seconds
#
# Revision: 2
# Processed by: cddbd v1.5.1PL0 Copyright (c) Steve Scherf et al.
# Submitted via: ExactAudioCopy v0.95a4
#
DISCID=4b101518
DTITLE=Little Jimmy Dickens - Country Boy - Disc 1
DYEAR=1900
DGENRE=
TTITLE0=Take An Old Cold 'Tater (And Wait) (1949)
TTITLE1=Pennies For Papa (1949)
TTITLE2=Crazy Worried Mind (1997)
TTITLE3=Golden Haired Darlin' (1997)
TTITLE4=Country Boy (1949)
TTITLE5=I'm Fading Fast With The Time (1949)
TTITLE6=I'll Be Back A-Sunday (1949)
TTITLE7=My Heart's Bouquet (1949)
TTITLE8=I'm In Love Up To My Ears (1967)
TTITLE9=A Rose From The Bride's Bouquet (1997)
TTITLE10=Beautiful Morning Glory (1997)
TTITLE11=Lovin' Lies (1997)
TTITLE12=A Rose From The Bride's Bouquet (1950)
TTITLE13=Lovin' Lies (1950)
TTITLE14=A-Sleepin' At The Foot Of The Bed (1949)
TTITLE15=Sign By The Highway (1951)
TTITLE16=Be Careful Of Stones That You Throw (1965)
TTITLE17=I'm In Love Up To My Ears (1949)
TTITLE18=Then I Had To Turn Around And Get Married (1950)
TTITLE19=If It Ain't One Thing It's Another (1950)
TTITLE20=F-O-O-L-I-S-H M-E (1950)
TTITLE21=Hillbilly Fever (1950)
TTITLE22=Walk, Chicken, Walk ('Cause You're Too Fat To Fly) (1950)
TTITLE23=Just When I Needed You (1950)
EXTD=
EXTT0=
EXTT1=
EXTT2=
EXTT3=
EXTT4=
EXTT5=
EXTT6=
EXTT7=
EXTT8=
EXTT9=
EXTT10=
EXTT11=
EXTT12=
EXTT13=
EXTT14=
EXTT15=
EXTT16=
EXTT17=
EXTT18=
EXTT19=
EXTT20=
EXTT21=
EXTT22=
EXTT23=
PLAYORDER=
